# xmcd
#
# Track frame offsets:
#	150
#	77990
#	127392
#	159250
#	173352
#	194904
#	233919
#	270639
#	302326
#
# Disc length: 4361 seconds
#
# Revision: 1
# Processed by: cddbd v1.5.2PL0 Copyright (c) Steve Scherf et al.
# Submitted via: audiograbber 1.83.01
#
DISCID=74110709
DTITLE=Grateful Dead - 82-08-08 Alpine Valley Music Theatre, East Troy WI
DYEAR=1900
DGENRE=
TTITLE0=Estimated Prophet
TTITLE1=Drums
TTITLE2=Space
TTITLE3=The Other One
TTITLE4=Not Fade Away
TTITLE5=Wharf Rat
TTITLE6=Good Lovin'
TTITLE7=Satisfaction
TTITLE8=Brokedown Palace
EXTD=
EXTT0=
EXTT1=
EXTT2=
EXTT3=
EXTT4=
EXTT5=
EXTT6=
EXTT7=
EXTT8=
PLAYORDER=
